<svg width="80" height="80" viewBox="0 0 80 80" fill="none" xmlns="http://www.w3.org/2000/svg">
<path d="M70.4342 32.8437C74.2995 36.9106 74.2995 43.0894 70.4342 47.1563C63.9149 54.0155 52.7182 63.3333 39.9998 63.3333C27.2815 63.3333 16.0848 54.0155 9.56552 47.1563C5.70017 43.0894 5.70016 36.9106 9.56552 32.8437C16.0848 25.9844 27.2815 16.6667 39.9998 16.6667C52.7182 16.6667 63.9149 25.9844 70.4342 32.8437Z" stroke="black" stroke-width="6.625"/>
<path d="M49.9998 40C49.9998 45.5228 45.5227 50 39.9998 50C34.477 50 29.9998 45.5228 29.9998 40C29.9998 34.4771 34.477 30 39.9998 30C45.5227 30 49.9998 34.4771 49.9998 40Z" stroke="black" stroke-width="6.625"/>
</svg>
